<svg xmlns="http://www.w3.org/2000/svg" xmlns:xlink="http://www.w3.org/1999/xlink" width="344" height="346" viewBox="0 0 344 346"><defs><path id="apoca" d="M465 1200c0-82.84 67.16-150 150-150s150 67.16 150 150-67.16 150-150 150-150-67.16-150-150z"/><path id="apoce" d="M615 1120a80 80 0 1 1 0 160 80 80 0 0 1 0-160"/><path id="apocf" d="M661.11 1174.05v13.73h-96.25v-21.41a4.52 4.52 0 0 1 4.54-4.54h12.47c1.13 0 2.27.38 3.15 1.26l5.67 5.3a4.71 4.71 0 0 0 3.15 1.25h62.74a4.34 4.34 0 0 1 4.53 4.41"/><path id="apocg" d="M656.2 1190.17l15.11-21.16a3.48 3.48 0 0 0-.88-4.92l-38.55-27.46-6.05 8.44c-1.13 1.64-3.27 1.9-4.91.88l-8.44-6.04-35.78 50.26z"/><path id="apoch" d="M631.88 1136.63l-19.4 3.28 8.44 6.04a3.48 3.48 0 0 0 4.91-.88z"/><path id="apoci" d="M656.81 1180.06l-1.82 2.57-43.96-31.23 1.82-2.57z"/><path id="apocj" d="M608.01 1155.47l43.96 31.23-1.82 2.57-43.96-31.23z"/><path id="apock" d="M601.39 1164.72l35.78 25.45h5.42l-39.31-27.97z"/><path id="apocl" d="M596.73 1171.53l26.2 18.64h5.42l-29.86-21.29z"/><path id="apocm" d="M591.94 1178.2l16.76 11.97h5.41l-20.4-14.61z"/><path id="apocn" d="M587.16 1184.88l7.3 5.3h5.55l-11.09-7.82z"/><path id="apocb" d="M535 1280h160v-160H535z"/><path id="apocp" d="M564.86 1195.84h96.25v-9.95h-96.25z"/><path id="apocq" d="M579.72 1185.89l-3.02 4.28h79.5l3.02-4.28z"/><path id="apocr" d="M645.36 1185.89l4.79 3.4 1.76-2.64-1-.76z"/><path id="apocs" d="M631.25 1185.89l5.92 4.28h5.42l-5.92-4.28z"/><path id="apoct" d="M617.02 1185.89l5.92 4.28h5.42l-5.92-4.28z"/><path id="apocu" d="M602.78 1185.89l5.92 4.28h5.42l-5.92-4.28z"/><path id="apocv" d="M588.54 1185.89l5.92 4.28H600l-6.04-4.28z"/><path id="apocw" d="M667.53 1187.78h-109.1c-3.15 0-5.04 3.28-4.28 7.3l9.7 48.26c.5 2.64 3.02 4.91 5.54 4.91h87.18c2.52 0 5.04-2.14 5.54-4.91l9.7-48.25c.76-3.9-1.13-7.31-4.28-7.31"/><path id="apocx" d="M630.5 1231.11c-4.54 3.78-10.84 6.05-17.52 6.05a27.82 27.82 0 0 1-17.51-6.05 7.33 7.33 0 0 1 4.16-4.91l6.8-3.28c.13-.88 1.26-2.14 1.26-2.14-.5-.75-1-1.63-1.39-2.52-.63 0-1.26-.5-1.63-1.26-.38-.75-.38-1.5-.13-2.01-1.38-3.15-2.4-8.32 1.51-12.22l-2.01.5s2.26-5.04 7.3-3.27c0 0-.5-.89-2.01-1.39 0 0 2.27-1.13 3.53.63 0 0 .75-.63 0-1.26 0 0 3.9.13 7.3 3.65 4.29 4.54 2.9 10.08 1.26 13.61.13.5.13 1.13-.25 1.64-.38.63-.88 1-1.39 1.13-.25.5-1.25 2.02-1.63 2.52 0 0 1.13 1.26 1.26 2.14l6.8 3.28c2.27 1.26 3.78 3.02 4.28 5.16"/><mask id="apocd" width="2" height="2" x="-1" y="-1"><path fill="#fff" d="M465 1050h300v300H465z"/><use xlink:href="#apoca"/></mask><filter id="apocc" width="380" height="381" x="425" y="1040" filterUnits="userSpaceOnUse"><feOffset dy="1" in="SourceGraphic" result="FeOffset1032Out"/><feGaussianBlur in="FeOffset1032Out" result="FeGaussianBlur1033Out" stdDeviation="12 12"/></filter><clipPath id="apoco"><use xlink:href="#apocb"/></clipPath></defs><g><g transform="translate(-444 -1028)"><g filter="url(#apocc)"><use fill="none" stroke-opacity=".1" stroke-width="0" mask="url(&quot;#apocd&quot;)" xlink:href="#apoca"/><use fill-opacity=".1" xlink:href="#apoca"/></g><use fill="#fff" xlink:href="#apoca"/></g><g transform="translate(-444 -1028)"><g><use fill="#ff7058" xlink:href="#apoce"/></g><g><use fill="#ffd05b" xlink:href="#apocf"/></g><g><use fill="#fff" xlink:href="#apocg"/></g><g><use fill="#e6e9ee" xlink:href="#apoch"/></g><g><use fill="#e6e9ee" xlink:href="#apoci"/></g><g><use fill="#e6e9ee" xlink:href="#apocj"/></g><g><use fill="#e6e9ee" xlink:href="#apock"/></g><g><use fill="#e6e9ee" xlink:href="#apocl"/></g><g><use fill="#e6e9ee" xlink:href="#apocm"/></g><g><use fill="#e6e9ee" xlink:href="#apocn"/></g><g/><g clip-path="url(#apoco)"><use fill="#f9b54c" xlink:href="#apocp"/></g><g clip-path="url(#apoco)"><use fill="#e6e9ee" xlink:href="#apocq"/></g><g clip-path="url(#apoco)"><use fill="#ced5e0" xlink:href="#apocr"/></g><g clip-path="url(#apoco)"><use fill="#ced5e0" xlink:href="#apocs"/></g><g clip-path="url(#apoco)"><use fill="#ced5e0" xlink:href="#apoct"/></g><g clip-path="url(#apoco)"><use fill="#ced5e0" xlink:href="#apocu"/></g><g clip-path="url(#apoco)"><use fill="#ced5e0" xlink:href="#apocv"/></g><g clip-path="url(#apoco)"><use fill="#ffd05b" xlink:href="#apocw"/></g><g clip-path="url(#apoco)"><use fill="#f9b54c" xlink:href="#apocx"/></g></g></g></svg>