<svg xmlns="http://www.w3.org/2000/svg" xmlns:xlink="http://www.w3.org/1999/xlink" width="344" height="346" viewBox="0 0 344 346"><defs><path id="tqe5a" d="M465 1889c0-82.84 67.16-150 150-150s150 67.16 150 150-67.16 150-150 150-150-67.16-150-150z"/><path id="tqe5d" d="M615 1809a80 80 0 1 1 0 160 80 80 0 0 1 0-160"/><path id="tqe5e" d="M667.41 1876.53v34.02c0 6.8-5.54 12.34-12.34 12.34v16l-19.53-16h-35.65c-6.8 0-12.35-5.54-12.35-12.34v-7.06l6.8-5.67h35.78c6.8 0 12.35-5.54 12.35-12.34v-21.42h12.6c6.8.13 12.34 5.67 12.34 12.47"/><path id="tqe5f" d="M630.12 1839.11h-55.18c-6.8 0-12.35 5.54-12.35 12.35v34.01c0 6.8 5.54 12.35 12.35 12.35v16l19.52-16h35.66c6.8 0 12.34-5.54 12.34-12.35v-34.01c0-6.8-5.54-12.35-12.34-12.35"/><path id="tqe5g" d="M579.6 1861.16a7.68 7.68 0 1 1 0 15.37 7.68 7.68 0 0 1 0-15.37"/><path id="tqe5h" d="M602.53 1861.16a7.68 7.68 0 1 1 0 15.37 7.68 7.68 0 0 1 0-15.37"/><path id="tqe5i" d="M625.33 1861.16a7.68 7.68 0 1 1 0 15.37 7.68 7.68 0 0 1 0-15.37"/><mask id="tqe5c" width="2" height="2" x="-1" y="-1"><path fill="#fff" d="M465 1739h300v300H465z"/><use xlink:href="#tqe5a"/></mask><filter id="tqe5b" width="380" height="381" x="425" y="1729" filterUnits="userSpaceOnUse"><feOffset dy="1" in="SourceGraphic" result="FeOffset1299Out"/><feGaussianBlur in="FeOffset1299Out" result="FeGaussianBlur1300Out" stdDeviation="12 12"/></filter></defs><g><g transform="translate(-444 -1717)"><g filter="url(#tqe5b)"><use fill="none" stroke-opacity=".1" stroke-width="0" mask="url(&quot;#tqe5c&quot;)" xlink:href="#tqe5a"/><use fill-opacity=".1" xlink:href="#tqe5a"/></g><use fill="#fff" xlink:href="#tqe5a"/></g><g transform="translate(-444 -1717)"><g><use fill="#ff7058" xlink:href="#tqe5d"/></g><g><use fill="#324a5e" xlink:href="#tqe5e"/></g><g><use fill="#fff" xlink:href="#tqe5f"/></g><g><use fill="#84dbff" xlink:href="#tqe5g"/></g><g><use fill="#84dbff" xlink:href="#tqe5h"/></g><g><use fill="#84dbff" xlink:href="#tqe5i"/></g></g></g></svg>