<?xml version="1.0" encoding="utf-8"?>
<!-- Generator: Adobe Illustrator 19.2.1, SVG Export Plug-In . SVG Version: 6.00 Build 0)  -->
<!DOCTYPE svg PUBLIC "-//W3C//DTD SVG 1.1//EN" "http://www.w3.org/Graphics/SVG/1.1/DTD/svg11.dtd">
<svg version="1.1" id="Layer_1" xmlns:sketch="http://www.bohemiancoding.com/sketch/ns"
	 xmlns="http://www.w3.org/2000/svg" xmlns:xlink="http://www.w3.org/1999/xlink" x="0px" y="0px" viewBox="0 0 47.5 54.5"
	 style="enable-background:new 0 0 47.5 54.5;" xml:space="preserve">
<style type="text/css">
	.st0{fill:#FF8C61;}
</style>
<g id="reabilitation">
	<path id="_xF193_" class="st0" d="M24.5,27.8C24.9,33.8,20,39,14,39C8.2,39,3.5,34.3,3.5,28.5c0-4.2,2.5-7.9,6.3-9.6l-0.4-3.1
		c-5.3,1.9-8.9,7-8.9,12.7C0.5,35.9,6.6,42,14,42c5.9,0,11.1-3.8,12.9-9.4L24.5,27.8z M37.3,30.2l-4.6,2.3l-5.3-10.7
		C27.1,21.3,26.6,21,26,21H15.3L15,18h9.5v-3h-9.9l-0.9-6.8c2.2,0.2,4-1.6,4-3.7c0-2.1-1.7-3.8-3.8-3.8c-1.7,0-3.2,1.1-3.6,2.7
		c-0.1,0.2-0.2,0.8-0.1,1l2.3,18.3c0.1,0.8,0.8,1.3,1.5,1.3h11.1l5.6,11.2c0.2,0.5,0.8,0.8,1.3,0.8c0.2,0,0.5,0,0.7-0.2l6-3
		L37.3,30.2z"/>
	<path class="st0" d="M44,54.5H14c-1.9,0-3.5-1.6-3.5-3.5v-3.9h3V51c0,0.3,0.2,0.5,0.5,0.5h30c0.3,0,0.5-0.2,0.5-0.5V17
		c0-0.3-0.2-0.5-0.5-0.5h-4.3v-3H44c1.9,0,3.5,1.6,3.5,3.5v34C47.5,52.9,45.9,54.5,44,54.5z"/>
</g>
</svg>
