<?xml version="1.0" encoding="utf-8"?>
<!-- Generator: Avocode 2.4.3-3630f5a - http://avocode.com -->
<svg height="24" width="19" xmlns:xlink="http://www.w3.org/1999/xlink" xmlns="http://www.w3.org/2000/svg" viewBox="0 0 19 24">
    <path fill="#ffffff" fill-rule="evenodd" d="M 18.94 15.58 C 18.81 14.44 18.4 13.41 17.59 12.58 C 16.76 11.73 15.75 11.21 14.61 10.91 C 14.48 10.88 14.36 10.84 14.24 10.81 C 14.24 10.79 14.24 10.78 14.23 10.76 C 14.29 10.73 14.35 10.69 14.41 10.65 C 15.7 10.04 16.6 9.05 17.1 7.71 C 17.45 6.77 17.52 5.8 17.38 4.81 C 17.21 3.66 16.77 2.66 15.88 1.9 C 14.81 0.97 13.54 0.54 12.17 0.37 C 10.89 0.22 9.6 0.01 8.3 0.01 L 5.24 0.01 L 5.24 0 L 0.59 0 L 0 0 L 0 0.72 L 0 1.02 L 0 23.38 L 0 24 L 0.62 24 L 5.24 24 L 9.32 24 C 10.34 24 11.35 23.81 12.37 23.67 C 13.61 23.49 14.77 23.03 15.83 22.35 C 17.17 21.51 18.15 20.34 18.64 18.82 C 19 17.78 19.07 16.67 18.94 15.58 L 18.94 15.58 Z M 6.42 4.56 C 7.34 4.58 8.25 4.58 9.17 4.6 C 9.6 4.61 10.03 4.73 10.41 4.93 C 11 5.23 11.27 5.76 11.39 6.37 C 11.51 6.97 11.45 7.58 11.21 8.16 C 10.96 8.75 10.46 9.07 9.88 9.25 C 9.52 9.36 9.14 9.43 8.77 9.45 C 8.02 9.48 7.25 9.46 6.49 9.47 C 6.14 9.47 6.19 9.49 6.18 9.15 L 6.18 6.99 C 6.18 6.25 6.19 5.52 6.17 4.78 C 6.18 4.59 6.25 4.55 6.42 4.56 L 6.42 4.56 Z M 12.77 17.41 C 12.55 18.09 12.13 18.57 11.48 18.87 C 10.82 19.18 10.12 19.33 9.39 19.34 C 8.41 19.35 7.16 19.35 6.19 19.36 C 6.19 18.27 6.2 14.64 6.19 13.74 C 6.19 13.57 6.06 13.52 6.23 13.52 C 7.44 13.54 8.73 13.54 9.93 13.56 C 10.43 13.57 10.96 13.68 11.42 13.89 C 12.37 14.31 12.85 15.05 12.9 16.07 C 12.92 16.53 12.92 16.98 12.77 17.41 L 12.77 17.41 Z M 12.77 17.41" />
</svg>