<?xml version="1.0" encoding="utf-8"?>
<!-- Generator: Adobe Illustrator 19.2.1, SVG Export Plug-In . SVG Version: 6.00 Build 0)  -->
<!DOCTYPE svg PUBLIC "-//W3C//DTD SVG 1.1//EN" "http://www.w3.org/Graphics/SVG/1.1/DTD/svg11.dtd">
<svg version="1.1" id="Layer_1" xmlns:sketch="http://www.bohemiancoding.com/sketch/ns"
	 xmlns="http://www.w3.org/2000/svg" xmlns:xlink="http://www.w3.org/1999/xlink" x="0px" y="0px" viewBox="0 0 47 43.5"
	 style="enable-background:new 0 0 47 43.5;" xml:space="preserve">
<style type="text/css">
	.st0{fill:#FF8C61;}
</style>
<g id="home">
	<path id="_xF015_" class="st0" d="M32.5,18.2c0,0,0-0.1,0-0.1L19,7L5.5,18.1c0,0,0,0.1,0,0.1v11.3C5.5,30.3,6.2,31,7,31h9v-9h6v9h9
		c0.8,0,1.5-0.7,1.5-1.5V18.2z M37.7,16.6c0.3-0.3,0.2-0.8-0.1-1.1l-5.1-4.3V1.7c0-0.4-0.3-0.8-0.8-0.8h-4.5c-0.4,0-0.8,0.3-0.8,0.8
		v4.6l-5.7-4.8c-1-0.8-2.6-0.8-3.6,0l-16.9,14c-0.3,0.3-0.4,0.8-0.1,1.1l1.5,1.7c0.1,0.1,0.3,0.2,0.5,0.3c0.2,0,0.4,0,0.6-0.2
		L19,4.9l16.2,13.5c0.1,0.1,0.3,0.2,0.5,0.2h0.1c0.2,0,0.4-0.1,0.5-0.3L37.7,16.6z"/>
	<path class="st0" d="M43,43.5H13c-1.9,0-3.5-1.6-3.5-3.5v-3.9h3V40c0,0.3,0.2,0.5,0.5,0.5h30c0.3,0,0.5-0.2,0.5-0.5V6
		c0-0.3-0.2-0.5-0.5-0.5h-4.3v-3H43c1.9,0,3.5,1.6,3.5,3.5v34C46.5,41.9,44.9,43.5,43,43.5z"/>
</g>
</svg>
