<?xml version="1.0" encoding="utf-8"?>
<!-- Generator: Avocode 2.5.3 - http://avocode.com -->
<svg height="48" width="110" xmlns:xlink="http://www.w3.org/1999/xlink" xmlns="http://www.w3.org/2000/svg" viewBox="0 0 110 48">
    <path fill="#231f20" fill-rule="evenodd" d="M 61.81 10.06 L 57.21 10.06 C 56.24 10.06 55.45 10.85 55.45 11.82 L 55.45 46.12 C 55.45 47.1 56.24 47.88 57.21 47.88 L 61.81 47.88 C 62.78 47.88 63.56 47.1 63.56 46.12 L 63.56 11.82 C 63.56 10.85 62.78 10.06 61.81 10.06" />
    <path fill="#231f20" fill-rule="evenodd" d="M 61.81 0.12 L 57.21 0.12 C 56.24 0.12 55.45 0.91 55.45 1.88 L 55.45 5.68 C 55.45 6.66 56.24 7.44 57.21 7.44 L 61.81 7.44 C 62.78 7.44 63.56 6.66 63.56 5.68 L 63.56 1.88 C 63.56 0.91 62.78 0.12 61.81 0.12" />
    <path fill="#231f20" fill-rule="evenodd" d="M 50.66 40.8 L 50.39 40.8 C 49.53 40.8 48.78 39.9 48.78 39.07 L 48.78 1.88 C 48.78 0.91 47.99 0.12 47.02 0.12 L 42.42 0.12 C 41.45 0.12 40.66 0.91 40.66 1.88 L 40.66 40.85 C 40.66 44.73 43.81 47.88 47.7 47.88 L 50.66 47.88 C 51.5 47.88 52.18 47.2 52.18 46.36 L 52.18 42.33 C 52.18 41.49 51.5 40.8 50.66 40.8" />
    <path fill="#231f20" fill-rule="evenodd" d="M 83.01 0.12 L 79.95 0.12 L 76.62 0.12 C 72.09 0.12 68.42 3.8 68.42 8.33 L 68.42 46.12 C 68.42 47.1 69.2 47.88 70.18 47.88 L 74.78 47.88 C 75.75 47.88 76.53 47.1 76.53 46.12 L 76.53 23.21 C 76.53 23.04 76.66 22.91 76.83 22.91 L 82.05 22.91 C 83.02 22.91 83.81 22.13 83.81 21.15 L 83.81 17.59 C 83.81 16.62 83.02 15.83 82.05 15.83 L 76.83 15.83 C 76.66 15.83 76.53 15.7 76.53 15.54 L 76.53 9.67 C 76.53 8.37 77.58 7.32 78.88 7.32 L 83.01 7.32 C 83.98 7.32 84.77 6.53 84.77 5.56 L 84.77 1.88 C 84.77 0.91 83.98 0.12 83.01 0.12" />
    <path fill="#231f20" fill-rule="evenodd" d="M 101.4 24.17 C 101.4 24.34 101.27 24.47 101.11 24.47 L 94.72 24.47 C 94.56 24.47 94.42 24.34 94.42 24.17 L 94.42 18.18 C 94.42 16.88 95.47 15.83 96.77 15.83 L 99.06 15.83 C 100.35 15.83 101.4 16.88 101.4 18.18 L 101.4 24.17 Z M 108.17 33.72 L 103.69 33.72 C 102.72 33.72 101.93 34.51 101.93 35.48 L 101.93 39.04 C 101.93 40.02 101.15 40.77 100.17 40.8 C 99.17 40.83 97.2 40.85 96.18 40.8 C 95.23 40.76 94.42 40.02 94.42 39.04 L 94.42 30.96 C 94.42 30.8 94.56 30.66 94.72 30.66 L 101.4 30.66 L 103.74 30.66 L 107.76 30.66 C 108.73 30.66 109.52 29.88 109.52 28.9 L 109.52 17.33 C 109.52 13.16 106.32 9.69 102.36 9.19 C 101.77 9.12 101.2 9.02 97.9 9.02 C 94.5 9.02 93.92 9.13 93.44 9.19 C 89.37 9.72 86.31 13.16 86.31 17.33 L 86.31 39.67 C 86.31 44 89.59 47.53 93.89 47.86 C 94.32 47.89 94.9 48 98.1 48 C 101.3 48 101.86 47.9 102.35 47.86 C 106.59 47.53 109.93 44 109.93 39.67 L 109.93 35.48 C 109.93 34.51 109.14 33.72 108.17 33.72 L 108.17 33.72 Z M 108.17 33.72" />
    <path fill="#231f20" fill-rule="evenodd" d="M 33.8 21.19 L 8.16 21.19 C 7.51 21.19 6.98 21.71 6.98 22.36 L 6.98 25.12 C 6.98 25.76 7.51 26.29 8.16 26.29 L 33.8 26.29 C 34.45 26.29 34.97 25.76 34.97 25.12 L 34.97 22.36 C 34.97 21.71 34.45 21.19 33.8 21.19" />
    <path fill="#231f20" fill-rule="evenodd" d="M 1.17 26.29 L 3.97 26.29 C 4.62 26.29 5.14 25.77 5.14 25.12 L 5.14 22.36 C 5.14 21.71 4.62 21.19 3.97 21.19 L 1.17 21.19 C 0.52 21.19 0 21.71 0 22.36 L 0 25.12 C 0 25.77 0.52 26.29 1.17 26.29" />
    <path fill="#231f20" fill-rule="evenodd" d="M 30.41 40.5 C 30.41 41.79 29.36 42.84 28.07 42.84 L 13.59 42.84 C 12.3 42.84 11.25 41.79 11.25 40.5 L 11.25 35.96 C 11.25 35.8 11.38 35.67 11.54 35.67 L 30.12 35.67 C 30.28 35.67 30.41 35.8 30.41 35.96 L 30.41 40.5 Z M 33.8 30.57 L 30.41 30.57 L 11.25 30.57 L 6.69 30.57 L 1.17 30.57 C 0.52 30.57 0 31.09 0 31.74 L 0 34.5 C 0 35.14 0.52 35.67 1.17 35.67 L 6.69 35.67 L 6.69 42.01 C 6.69 45.25 9.32 47.88 12.55 47.88 L 29.11 47.88 C 32.35 47.88 34.97 45.25 34.97 42.01 L 34.97 35.67 L 34.97 31.74 C 34.97 31.09 34.45 30.57 33.8 30.57 L 33.8 30.57 Z M 33.8 30.57" />
    <path fill="#231f20" fill-rule="evenodd" d="M 35.09 6.22 C 34.84 3.02 32.21 0.59 29.13 0.59 L 27.72 0.59 C 22.83 0.59 21.61 3.17 19.58 6.99 C 17.83 10.27 17.13 12.96 14.19 12.96 L 13.41 12.96 C 12.02 12.96 11.15 12 11.07 10.61 C 11.03 9.91 11.04 8.57 11.07 7.98 C 11.14 6.43 11.96 5.63 13.41 5.63 L 15.71 5.63 C 16.35 5.63 16.88 5.11 16.88 4.46 L 16.88 2.17 C 16.88 1.52 16.35 1 15.71 1 L 12.57 1 C 9.43 1 6.96 3.24 6.65 6.03 C 6.6 6.48 6.49 7.05 6.49 9.24 C 6.49 11.45 6.6 12.11 6.65 12.5 C 7.05 15.35 9.5 17.54 12.45 17.54 L 14.19 17.54 C 19.08 17.54 20.38 15.03 22.46 11.02 C 24.18 7.7 24.85 5.29 27.81 5.29 L 28.17 5.29 C 29.46 5.29 30.46 6.25 30.51 7.63 C 30.56 8.91 30.56 9.41 30.51 10.69 C 30.46 12.02 29.46 13.04 28.17 13.04 L 26.31 13.04 C 25.66 13.04 25.14 13.56 25.14 14.21 L 25.14 16.62 C 25.14 17.27 25.66 17.79 26.31 17.79 L 29.13 17.79 C 32.19 17.79 34.8 15.54 35.08 12.37 C 35.12 11.88 35.19 11.21 35.19 9.18 C 35.19 7.2 35.11 6.59 35.09 6.22" />
</svg>