<svg xmlns="http://www.w3.org/2000/svg" xmlns:xlink="http://www.w3.org/1999/xlink" width="20" height="20" viewBox="0 0 20 20"><defs><path id="3uroa" d="M1157.18 593.93l3.32 3.33c.09.09.13.22.13.31s-.04.22-.13.31l-.62.62a.48.48 0 0 1-.31.13.4.4 0 0 1-.31-.13l-3.33-3.32a.21.21 0 0 0-.3 0l-3.33 3.32a.48.48 0 0 1-.31.13.4.4 0 0 1-.31-.13l-.62-.62a.48.48 0 0 1-.14-.31c0-.09.05-.22.14-.31l3.32-3.33a.21.21 0 0 0 0-.3l-3.32-3.33a.48.48 0 0 1-.14-.31c0-.1.05-.23.14-.31l.62-.62a.48.48 0 0 1 .3-.14c.1 0 .23.05.32.14l3.32 3.32c.1.09.22.09.31 0l3.33-3.32a.48.48 0 0 1 .31-.14.4.4 0 0 1 .31.14l.62.62c.09.08.13.22.13.3 0 .1-.04.23-.13.32l-3.32 3.32c-.1.05-.1.22 0 .31zm-1.42-9.93a9.73 9.73 0 0 0-9.76 9.76 9.73 9.73 0 0 0 9.76 9.75 9.73 9.73 0 0 0 9.75-9.75 9.73 9.73 0 0 0-9.75-9.76z"/></defs><g><g transform="translate(-1146 -584)"><use fill="#9b9b9b" xlink:href="#3uroa"/></g></g></svg>