<svg xmlns="http://www.w3.org/2000/svg" xmlns:xlink="http://www.w3.org/1999/xlink" width="30" height="30" viewBox="0 0 30 30"><defs><path id="e5bmb" d="M922.9 842.12a2.96 2.96 0 0 0 2.97-2.93c0-.63-.2-1.22-.56-1.7a3 3 0 0 0-5.4 1.7 2.95 2.95 0 0 0 2.98 2.93"/><path id="e5bmc" d="M929.4 835.62v-2.82h-2.87l.01 2.82z"/><path id="e5bma" d="M908 824.59h29.8v29.2H908z"/><path id="e5bme" d="M922.9 824.59c-8.22 0-14.9 6.55-14.9 14.6s6.68 14.6 14.9 14.6c8.2 0 14.9-6.55 14.9-14.6s-6.7-14.6-14.9-14.6zm8.48 12.9v6.8a3.25 3.25 0 0 1-3.28 3.21h-10.4a3.25 3.25 0 0 1-3.28-3.21v-10.2a3.25 3.25 0 0 1 3.28-3.2h10.4c1.8 0 3.28 1.44 3.28 3.2z"/><path id="e5bmf" d="M927.53 839.2a4.6 4.6 0 0 1-4.64 4.54 4.6 4.6 0 0 1-4.63-4.55c0-.6.12-1.17.34-1.7h-2.53v6.8c0 .88.73 1.6 1.62 1.6h10.4c.9 0 1.62-.72 1.62-1.6v-6.8h-2.53c.22.53.35 1.1.35 1.7"/><clipPath id="e5bmd"><use xlink:href="#e5bma"/></clipPath></defs><g><g transform="translate(-908 -824)"><g><use xlink:href="#e5bmb"/></g><g><use xlink:href="#e5bmc"/></g><g><g/><g clip-path="url(#e5bmd)"><use xlink:href="#e5bme"/></g></g><g><use xlink:href="#e5bmf"/></g></g></g></svg>