<svg xmlns="http://www.w3.org/2000/svg" xmlns:xlink="http://www.w3.org/1999/xlink" width="12" height="17" viewBox="0 0 12 17"><defs><path id="ld9la" d="M853 3052c-3.3 0-6 2.8-6 6.26 0 .9.18 1.76.52 2.55 1.5 3.43 4.38 7.04 5.23 8.07.06.08.15.12.25.12s.19-.04.25-.12c.85-1.03 3.72-4.64 5.23-8.07.34-.8.52-1.65.52-2.55 0-3.45-2.7-6.26-6-6.26m0 9.51a3.2 3.2 0 0 1-3.12-3.25A3.2 3.2 0 0 1 853 3055a3.2 3.2 0 0 1 3.13 3.25 3.2 3.2 0 0 1-3.13 3.25"/></defs><g><g clip-path="url(#clip-FA960603-0DB5-4652-B56E-A380729D08D6)" transform="translate(-847 -3052)"><use fill="#fff" xlink:href="#ld9la"/></g></g></svg>