<svg xmlns="http://www.w3.org/2000/svg" xmlns:xlink="http://www.w3.org/1999/xlink" width="42" height="42" viewBox="0 0 42 42"><defs><path id="1bfja" d="M684 4178.86a19.86 19.86 0 1 1 39.72 0 19.86 19.86 0 0 1-39.72 0z"/><path id="1bfjb" d="M703.1 4187.56h1.57s.47-.05.7-.3c.23-.25.22-.7.22-.7s-.03-2.08.94-2.4c.96-.3 2.19 2.03 3.49 2.92.98.68 1.73.53 1.73.53l3.48-.05s1.83-.1.96-1.54c-.07-.12-.5-1.06-2.59-3-2.18-2.02-1.89-1.7.74-5.2 1.6-2.14 2.24-3.44 2.04-4-.19-.53-1.36-.39-1.36-.39l-3.93.03s-.29-.04-.5.08a1.1 1.1 0 0 0-.35.43s-.62 1.65-1.45 3.05c-1.74 2.97-2.44 3.12-2.72 2.94-.67-.43-.5-1.72-.5-2.64 0-2.88.43-4.07-.85-4.38a6.7 6.7 0 0 0-1.83-.19c-1.4-.01-2.58 0-3.25.34-.45.21-.8.7-.59.73.26.03.85.16 1.16.58.4.55.39 1.78.39 1.78s.23 3.38-.54 3.8c-.53.29-1.25-.3-2.8-3-.8-1.37-1.4-2.9-1.4-2.9s-.13-.28-.33-.43c-.25-.18-.6-.24-.6-.24l-3.73.02s-.56.02-.76.26c-.19.22-.02.66-.02.66s2.92 6.83 6.22 10.27c3.03 3.15 6.47 2.94 6.47 2.94z"/></defs><g><g transform="translate(-683 -4158)"><g><use fill="#4d76a1" xlink:href="#1bfja"/><use fill="#fff" fill-opacity="0" stroke="#fff" stroke-miterlimit="50" xlink:href="#1bfja"/></g><g><use fill="#fff" xlink:href="#1bfjb"/></g></g></g></svg>