<?xml version="1.0" encoding="utf-8"?>
<!-- Generator: Avocode 2.5.3 - http://avocode.com -->
<svg height="42" width="96" xmlns:xlink="http://www.w3.org/1999/xlink" xmlns="http://www.w3.org/2000/svg" viewBox="0 0 96 42">
    <path fill="#ffffff" fill-rule="evenodd" d="M 53.94 8.8 L 49.93 8.8 C 49.08 8.8 48.39 9.49 48.39 10.34 L 48.39 40.36 C 48.39 41.21 49.08 41.9 49.93 41.9 L 53.94 41.9 C 54.79 41.9 55.47 41.21 55.47 40.36 L 55.47 10.34 C 55.47 9.49 54.79 8.8 53.94 8.8" />
    <path fill="#ffffff" fill-rule="evenodd" d="M 53.94 0.11 L 49.93 0.11 C 49.08 0.11 48.39 0.79 48.39 1.64 L 48.39 4.97 C 48.39 5.82 49.08 6.51 49.93 6.51 L 53.94 6.51 C 54.79 6.51 55.47 5.82 55.47 4.97 L 55.47 1.64 C 55.47 0.79 54.79 0.11 53.94 0.11" />
    <path fill="#ffffff" fill-rule="evenodd" d="M 44.21 35.7 L 43.98 35.7 C 43.23 35.7 42.57 34.91 42.57 34.19 L 42.57 1.64 C 42.57 0.79 41.89 0.11 41.04 0.11 L 37.02 0.11 C 36.18 0.11 35.49 0.79 35.49 1.64 L 35.49 35.74 C 35.49 39.14 38.24 41.9 41.63 41.9 L 44.21 41.9 C 44.95 41.9 45.54 41.3 45.54 40.56 L 45.54 37.04 C 45.54 36.3 44.95 35.7 44.21 35.7" />
    <path fill="#ffffff" fill-rule="evenodd" d="M 72.44 0.11 L 69.77 0.11 L 66.87 0.11 C 62.92 0.11 59.71 3.32 59.71 7.29 L 59.71 40.36 C 59.71 41.21 60.4 41.9 61.24 41.9 L 65.26 41.9 C 66.11 41.9 66.79 41.21 66.79 40.36 L 66.79 20.31 C 66.79 20.16 66.91 20.05 67.05 20.05 L 71.61 20.05 C 72.46 20.05 73.14 19.36 73.14 18.51 L 73.14 15.39 C 73.14 14.54 72.46 13.85 71.61 13.85 L 67.05 13.85 C 66.91 13.85 66.79 13.74 66.79 13.6 L 66.79 8.46 C 66.79 7.33 67.71 6.41 68.84 6.41 L 72.45 6.41 C 73.29 6.41 73.98 5.72 73.98 4.87 L 73.98 1.65 C 73.98 0.8 73.29 0.11 72.44 0.11" />
    <path fill="#ffffff" fill-rule="evenodd" d="M 88.5 21.15 C 88.5 21.29 88.38 21.41 88.24 21.41 L 82.66 21.41 C 82.52 21.41 82.41 21.29 82.41 21.15 L 82.41 15.91 C 82.41 14.77 83.32 13.85 84.45 13.85 L 86.45 13.85 C 87.58 13.85 88.5 14.77 88.5 15.91 L 88.5 21.15 Z M 94.4 29.51 L 90.49 29.51 C 89.64 29.51 88.96 30.2 88.96 31.05 L 88.96 34.16 C 88.96 35.01 88.28 35.68 87.42 35.7 C 86.55 35.73 84.83 35.75 83.94 35.7 C 83.11 35.66 82.41 35.01 82.41 34.16 L 82.41 27.09 C 82.41 26.95 82.52 26.83 82.66 26.83 L 88.5 26.83 L 90.53 26.83 L 94.04 26.83 C 94.89 26.83 95.58 26.14 95.58 25.29 L 95.58 15.16 C 95.58 11.51 92.79 8.48 89.33 8.04 C 88.82 7.98 88.32 7.89 85.44 7.89 C 82.48 7.89 81.96 7.99 81.54 8.04 C 78 8.5 75.32 11.51 75.32 15.16 L 75.32 34.71 C 75.32 38.5 78.19 41.59 81.94 41.88 C 82.31 41.9 82.82 42 85.61 42 C 88.4 42 88.89 41.91 89.32 41.88 C 93.03 41.59 95.94 38.5 95.94 34.71 L 95.94 31.05 C 95.94 30.2 95.25 29.51 94.4 29.51 L 94.4 29.51 Z M 94.4 29.51" />
    <path fill-opacity="0.7" fill="#ffffff" fill-rule="evenodd" d="M 29.5 18.54 L 7.12 18.54 C 6.55 18.54 6.1 19 6.1 19.56 L 6.1 21.98 C 6.1 22.54 6.55 23 7.12 23 L 29.5 23 C 30.06 23 30.52 22.54 30.52 21.98 L 30.52 19.56 C 30.52 19 30.06 18.54 29.5 18.54" />
    <path fill-opacity="0.7" fill="#ffffff" fill-rule="evenodd" d="M 1.02 23 L 3.47 23 C 4.03 23 4.49 22.54 4.49 21.98 L 4.49 19.56 C 4.49 19 4.03 18.54 3.47 18.54 L 1.02 18.54 C 0.46 18.54 0 19 0 19.56 L 0 21.98 C 0 22.54 0.46 23 1.02 23" />
    <path fill-opacity="0.7" fill="#ffffff" fill-rule="evenodd" d="M 26.54 35.43 C 26.54 36.57 25.63 37.49 24.5 37.49 L 11.86 37.49 C 10.73 37.49 9.82 36.57 9.82 35.43 L 9.82 31.47 C 9.82 31.33 9.93 31.21 10.07 31.21 L 26.29 31.21 C 26.43 31.21 26.54 31.33 26.54 31.47 L 26.54 35.43 Z M 29.5 26.75 L 26.54 26.75 L 9.82 26.75 L 5.84 26.75 L 1.02 26.75 C 0.46 26.75 0 27.2 0 27.77 L 0 30.18 C 0 30.75 0.46 31.21 1.02 31.21 L 5.84 31.21 L 5.84 36.76 C 5.84 39.59 8.13 41.89 10.95 41.89 L 25.4 41.89 C 28.23 41.89 30.52 39.59 30.52 36.76 L 30.52 31.21 L 30.52 27.77 C 30.52 27.2 30.06 26.75 29.5 26.75 L 29.5 26.75 Z M 29.5 26.75" />
    <path fill-opacity="0.7" fill="#ffffff" fill-rule="evenodd" d="M 30.62 5.44 C 30.41 2.64 28.11 0.52 25.42 0.52 L 24.2 0.52 C 19.93 0.52 18.86 2.77 17.09 6.11 C 15.56 8.99 14.95 11.34 12.39 11.34 L 11.71 11.34 C 10.49 11.34 9.73 10.5 9.66 9.28 C 9.62 8.67 9.64 7.5 9.66 6.98 C 9.72 5.62 10.44 4.93 11.71 4.93 L 13.71 4.93 C 14.27 4.93 14.73 4.47 14.73 3.9 L 14.73 1.9 C 14.73 1.33 14.27 0.87 13.71 0.87 L 10.97 0.87 C 8.23 0.87 6.07 2.84 5.8 5.28 C 5.76 5.67 5.66 6.17 5.66 8.09 C 5.66 10.02 5.76 10.6 5.8 10.94 C 6.16 13.43 8.29 15.34 10.87 15.34 L 12.39 15.34 C 16.65 15.34 17.79 13.15 19.6 9.64 C 21.1 6.74 21.69 4.63 24.27 4.63 L 24.58 4.63 C 25.71 4.63 26.58 5.47 26.63 6.68 C 26.67 7.79 26.67 8.23 26.63 9.36 C 26.58 10.52 25.71 11.41 24.58 11.41 L 22.96 11.41 C 22.4 11.41 21.94 11.87 21.94 12.44 L 21.94 14.54 C 21.94 15.11 22.4 15.57 22.96 15.57 L 25.42 15.57 C 28.09 15.57 30.37 13.6 30.62 10.82 C 30.65 10.4 30.71 9.81 30.71 8.04 C 30.71 6.3 30.64 5.77 30.62 5.44" />
</svg>