<?xml version="1.0" encoding="utf-8"?>
<!-- Generator: Adobe Illustrator 19.2.1, SVG Export Plug-In . SVG Version: 6.00 Build 0)  -->
<!DOCTYPE svg PUBLIC "-//W3C//DTD SVG 1.1//EN" "http://www.w3.org/Graphics/SVG/1.1/DTD/svg11.dtd">
<svg version="1.1" id="Layer_1" xmlns:sketch="http://www.bohemiancoding.com/sketch/ns"
	 xmlns="http://www.w3.org/2000/svg" xmlns:xlink="http://www.w3.org/1999/xlink" x="0px" y="0px" viewBox="0 0 45.5 39.5"
	 style="enable-background:new 0 0 45.5 39.5;" xml:space="preserve">
<style type="text/css">
	.st0{fill:#FF8C61;}
</style>
<g id="edu">
	<path id="_xF19D_" class="st0" d="M27.7,13.1l-9,2.8C18.5,16,18.3,16,18,16s-0.5,0-0.8-0.1l-9-2.8L8,18c-0.1,2.2,4.5,4,10,4
		s10.1-1.8,10-4L27.7,13.1z M36,8c0-0.2-0.1-0.4-0.3-0.5L18.2,2C18.1,2,18,2,18,2s-0.1,0-0.2,0L0.3,7.5C0.1,7.6,0,7.8,0,8
		c0,0.2,0.1,0.4,0.3,0.5l5.2,1.6c-1,1.4-1.4,3.3-1.5,5.2c-0.6,0.3-1,1-1,1.7c0,0.7,0.4,1.3,0.9,1.7L3,25.4c0,0.1,0,0.3,0.1,0.4
		C3.2,25.9,3.4,26,3.5,26h3c0.1,0,0.3-0.1,0.4-0.2S7,25.6,7,25.4l-0.9-6.8C6.6,18.3,7,17.7,7,17c0-0.7-0.4-1.4-1-1.7
		c0.1-2.1,0.8-3.8,1.6-4.5L17.8,14c0.1,0,0.1,0,0.2,0s0.1,0,0.2,0l17.5-5.5C35.9,8.4,36,8.2,36,8L36,8z"/>
	<path class="st0" d="M42,39.5H12c-1.9,0-3.5-1.6-3.5-3.5v-3.9h3V36c0,0.3,0.2,0.5,0.5,0.5h30c0.3,0,0.5-0.2,0.5-0.5V2
		c0-0.3-0.2-0.5-0.5-0.5h-4.3v-3H42c1.9,0,3.5,1.6,3.5,3.5v34C45.5,37.9,43.9,39.5,42,39.5z"/>
</g>
</svg>
