<svg xmlns="http://www.w3.org/2000/svg" xmlns:xlink="http://www.w3.org/1999/xlink" width="344" height="346" viewBox="0 0 344 346"><defs><path id="1euha" d="M1235 1539c0-82.84 67.16-150 150-150s150 67.16 150 150-67.16 150-150 150-150-67.16-150-150z"/><path id="1euhe" d="M1385 1459a80 80 0 1 1 0 160 80 80 0 0 1 0-160"/><path id="1euhf" d="M1426.3 1598.69h-81.32c-3.16 0-5.69-2.51-5.69-5.65V1487.5a5.64 5.64 0 0 1 5.7-5.64h81.3c3.16 0 5.7 2.5 5.7 5.64v105.54c.12 3.14-2.54 5.65-5.7 5.65"/><path id="1euhb" d="M1305 1619h160v-160h-160z"/><path id="1euhh" d="M1345.63 1532.65h80v-3.81h-80z"/><path id="1euhi" d="M1345.63 1542.81h80V1539h-80z"/><path id="1euhj" d="M1345.63 1551.7h80v-3.81h-80z"/><path id="1euhk" d="M1345.63 1561.86h80v-3.81h-80z"/><path id="1euhl" d="M1345.63 1570.75h80v-3.81h-80z"/><path id="1euhm" d="M1389.31 1580.76h36.32v-3.66h-80v3.8h43.68z"/><path id="1euhn" d="M1345.63 1589.79h43.17v-3.81h-43.17z"/><path id="1euho" d="M1402.78 1519.74l-3.96 4.02-4.93-5c.72-.6 1.44-1.21 2.04-1.82.6-.6 1.32-1.34 1.8-2.07z"/><path id="1euhp" d="M1378.01 1472.97a26.03 26.03 0 1 1 0 52.06 26.03 26.03 0 0 1 0-52.06"/><path id="1euhq" d="M1378.65 1478.05a21.59 21.59 0 1 1 0 43.17 21.59 21.59 0 0 1 0-43.17"/><path id="1euhr" d="M1393.89 1512.65a20.26 20.26 0 0 1-16.45 8.57c-6.68 0-12.74-3.43-16.57-8.57a21.82 21.82 0 0 1 9.9-5.4c-.25 2.64.98 6.06.98 6.06 1.24-3.16 5.69-3.42 5.69-3.42s4.33.26 5.69 3.42c0 .13 1.36-3.42.99-6.06 3.09.8 6.92 2.37 9.77 5.4"/><path id="1euhs" d="M1383.73 1504.93c0 .52-.4 2.89-5.58 4.86h-.27c-5.18-1.97-5.58-4.34-5.58-4.86a7 7 0 0 1 .66-2.76c1.47 1.58 3.2 2.63 5.05 2.63 1.86 0 3.6-1.05 5.05-2.63a7 7 0 0 1 .67 2.76"/><path id="1euht" d="M1379.16 1508.52s-.26 0 0 0h-.51z"/><path id="1euhu" d="M1381.19 1509.15l-1.2 1.91h-3.96l-1.19-1.9a14.4 14.4 0 0 1 3.17-.64s1.72.1 3.18.63"/><path id="1euhv" d="M1374.84 1519.71c1.1.12 2.07.24 3.17.24s2.07-.12 3.18-.24l-1.1-7.38h-4.15z"/><path id="1euhw" d="M1383.7 1504.71s.23 2.62-5.05 4.52c0 0 4.11.24 5.4 3.1 0 .12 2.35-6.2-.35-7.62"/><path id="1euhx" d="M1372.33 1504.71c-2.7 1.52-.35 7.62-.35 7.62 1.17-2.81 5.4-3.05 5.4-3.05-5.29-2.1-5.05-4.57-5.05-4.57"/><path id="1euhy" d="M1383.73 1503.05c-1.53 1.76-3.18 2.93-5.08 2.93s-3.68-1.17-5.08-2.93c.13-.3.13-.59.25-.88 1.4 1.76 3.05 2.93 4.83 2.93 1.78 0 3.43-1.17 4.82-2.93.13.3.26.59.26.88"/><path id="1euhz" d="M1388.13 1497.56c-.76 1.27-1.79 1.91-2.69 1.79-1.66 3.07-4.1 5.37-6.8 5.37-2.68 0-5.12-2.3-6.79-5.37-.9.12-1.92-.64-2.69-1.8-.9-1.4-.9-3.06 0-3.58.13-.12.39-.12.64-.12a8.1 8.1 0 0 0 1.29 2.3c-.77-4.48 2.43-4.86 1.92-9.21 0 0 2.05 4.6 7.95 1.4l-.52.9c8.08-1.79 5.52 7.55 5.39 8.06.9-1.15 1.54-2.3 1.92-3.45.13 0 .26 0 .38.12.9.64.9 2.18 0 3.59"/><path id="1euhA" d="M1369.81 1483.75s1.66-.25 2.17.99c0 0-.5-1.73 0-2.47.51-.75 0-.25 0-.25s-.25 1.11.26 1.73c0 0 1.15-4.08 8.17-2.97 0 0-1.4-.12-3.06 1.24 0 0 4.85-2.1 7.8 1.11 0 0-1.16-.5-1.8-.5 0 0 6.26 2.35 5.37 8.41l-.38-1.36s.5 3.71-2.56 7.42c0 0 2.94-9.64-5.37-7.79l.52-.86c-5.88 3.09-7.93-1.36-7.93-1.36.52 4.07-2.68 4.57-1.91 8.9 0 0-2.81-3.1-1.66-7.17l-.9.99s-.64-3.71 3.07-4.95c-.13 0-.38-.86-1.79-1.11"/><path id="1euhB" d="M1435.16 1551.4l-4.46 4.6c-1 1.03-2.6 1.03-3.47 0l-27.52-28.37c-.99-1.02-.99-2.69 0-3.58l4.47-4.6c.99-1.03 2.6-1.03 3.47 0l27.39 28.25c.99 1.15.99 2.68.12 3.7"/><path id="1euhC" d="M1426.38 1554.24l-24.87-24.88 8.14-8.14 24.88 24.88z"/><mask id="1euhd" width="2" height="2" x="-1" y="-1"><path fill="#fff" d="M1235 1389h300v300h-300z"/><use xlink:href="#1euha"/></mask><filter id="1euhc" width="380" height="381" x="1195" y="1379" filterUnits="userSpaceOnUse"><feOffset dy="1" in="SourceGraphic" result="FeOffset1153Out"/><feGaussianBlur in="FeOffset1153Out" result="FeGaussianBlur1154Out" stdDeviation="12 12"/></filter><clipPath id="1euhg"><use xlink:href="#1euhb"/></clipPath></defs><g><g transform="translate(-1214 -1367)"><g filter="url(#1euhc)"><use fill="none" stroke-opacity=".1" stroke-width="0" mask="url(&quot;#1euhd&quot;)" xlink:href="#1euha"/><use fill-opacity=".1" xlink:href="#1euha"/></g><use fill="#fff" xlink:href="#1euha"/></g><g transform="translate(-1214 -1367)"><g><use fill="#ff7058" xlink:href="#1euhe"/></g><g><use fill="#fff" xlink:href="#1euhf"/></g><g/><g clip-path="url(#1euhg)"><use fill="#e6e9ee" xlink:href="#1euhh"/></g><g clip-path="url(#1euhg)"><use fill="#e6e9ee" xlink:href="#1euhi"/></g><g clip-path="url(#1euhg)"><use fill="#e6e9ee" xlink:href="#1euhj"/></g><g clip-path="url(#1euhg)"><use fill="#e6e9ee" xlink:href="#1euhk"/></g><g clip-path="url(#1euhg)"><use fill="#e6e9ee" xlink:href="#1euhl"/></g><g clip-path="url(#1euhg)"><use fill="#e6e9ee" xlink:href="#1euhm"/></g><g clip-path="url(#1euhg)"><use fill="#e6e9ee" xlink:href="#1euhn"/></g><g clip-path="url(#1euhg)"><use fill="#2b3b4e" xlink:href="#1euho"/></g><g clip-path="url(#1euhg)"><use fill="#324a5e" xlink:href="#1euhp"/></g><g clip-path="url(#1euhg)"><use fill="#fff" xlink:href="#1euhq"/></g><g clip-path="url(#1euhg)"><use fill="#84dbff" xlink:href="#1euhr"/></g><g clip-path="url(#1euhg)"><use fill="#ffd05b" xlink:href="#1euhs"/></g><g clip-path="url(#1euhg)"><use fill="#f1543f" xlink:href="#1euht"/></g><g clip-path="url(#1euhg)"><use fill="#f1543f" xlink:href="#1euhu"/></g><g clip-path="url(#1euhg)"><use fill="#ff7058" xlink:href="#1euhv"/></g><g clip-path="url(#1euhg)"><use fill="#54c0eb" xlink:href="#1euhw"/></g><g clip-path="url(#1euhg)"><use fill="#54c0eb" xlink:href="#1euhx"/></g><g clip-path="url(#1euhg)"><use fill="#f9b54c" xlink:href="#1euhy"/></g><g clip-path="url(#1euhg)"><use fill="#ffd05b" xlink:href="#1euhz"/></g><g clip-path="url(#1euhg)"><use fill="#324a5e" xlink:href="#1euhA"/></g><g clip-path="url(#1euhg)"><use fill="#324a5e" xlink:href="#1euhB"/></g><g clip-path="url(#1euhg)"><use fill="#4cdbc4" xlink:href="#1euhC"/></g></g></g></svg>