<svg xmlns="http://www.w3.org/2000/svg" xmlns:xlink="http://www.w3.org/1999/xlink" width="30" height="30" viewBox="0 0 30 30"><defs><path id="bn11b" d="M934.28 1677.58a6.69 6.69 0 0 0 9.27-9.27z"/><path id="bn11c" d="M938 1665.35a6.69 6.69 0 0 0-5.24 10.81l9.37-9.37a6.64 6.64 0 0 0-4.13-1.44"/><path id="bn11a" d="M923 1657h30v30h-30z"/><path id="bn11e" d="M938 1657a15 15 0 1 0 0 30 15 15 0 0 0 0-30m0 23.8a8.77 8.77 0 1 1 8.76-8.76 8.77 8.77 0 0 1-8.76 8.75"/><clipPath id="bn11d"><use xlink:href="#bn11a"/></clipPath></defs><g><g transform="translate(-923 -1657)"><g><use fill="#d0021b" xlink:href="#bn11b"/></g><g><use fill="#d0021b" xlink:href="#bn11c"/></g><g><g/><g clip-path="url(#bn11d)"><use fill="#d0021b" xlink:href="#bn11e"/></g></g></g></g></svg>