<svg xmlns="http://www.w3.org/2000/svg" xmlns:xlink="http://www.w3.org/1999/xlink" width="20" height="19" viewBox="0 0 20 19"><defs><path id="k7a1a" d="M368.97 4260.6l2.25 4.57c.16.32.46.54.81.59l5.05.73c.88.13 1.23 1.22.6 1.84l-3.66 3.56c-.25.25-.37.6-.3.95l.86 5.03c.15.87-.78 1.55-1.57 1.13l-4.5-2.37a1.08 1.08 0 0 0-1.01 0l-4.51 2.37a1.08 1.08 0 0 1-1.57-1.13l.87-5.03c.06-.35-.06-.7-.31-.95l-3.65-3.56c-.64-.62-.29-1.7.6-1.84l5.04-.73c.35-.05.65-.27.8-.59l2.26-4.57c.4-.8 1.54-.8 1.94 0"/></defs><g><g transform="translate(-358 -4260)"><use fill="#ed8a19" xlink:href="#k7a1a"/></g></g></svg>