<svg xmlns="http://www.w3.org/2000/svg" xmlns:xlink="http://www.w3.org/1999/xlink" width="16" height="20" viewBox="0 0 16 20"><defs><path id="ify2a" d="M1088 549.02h15.99V569H1088z"/><path id="ify2c" d="M1103.3 551.15h-3.72v-1.4c0-.4-.31-.73-.7-.73h-5.78c-.38 0-.69.33-.69.73v3.87c0 .4.31.73.7.73h4.27c.38 0 .7-.33.7-.73 0-.4-.32-.73-.7-.73h-3.58v-2.4h4.4v1.4c0 .4.31.73.7.73h3.7v14.91h-13.22v-14.91h1.06c.38 0 .7-.33.7-.73 0-.4-.32-.74-.7-.74h-1.75c-.38 0-.69.33-.69.74v16.38c0 .4.31.73.7.73h14.6c.38 0 .69-.33.69-.73v-16.38c0-.4-.31-.74-.7-.74"/><path id="ify2d" d="M1099.8 557.24a.65.65 0 0 0-1.02 0l-3.33 3.78-1.22-1.4a.65.65 0 0 0-1.02 0 .9.9 0 0 0 0 1.15l1.72 1.99c.14.16.32.24.51.24.18 0 .37-.08.5-.24l3.85-4.36a.9.9 0 0 0 0-1.16"/><clipPath id="ify2b"><use xlink:href="#ify2a"/></clipPath></defs><g><g transform="translate(-1088 -549)"><g><g/><g clip-path="url(#ify2b)"><use fill="#9b9b9b" xlink:href="#ify2c"/></g></g><g><use fill="#9b9b9b" xlink:href="#ify2d"/></g></g></g></svg>