<svg xmlns="http://www.w3.org/2000/svg" xmlns:xlink="http://www.w3.org/1999/xlink" width="21" height="20" viewBox="0 0 21 20"><defs><path id="llima" d="M435.23 4259.05h14.54v19.93h-14.54z"/><path id="llimc" d="M449.05 4270.12c.48-.54.72-1.19.72-1.93a2.4 2.4 0 0 0-.74-1.76 2.4 2.4 0 0 0-1.76-.74h-3.59a3.28 3.28 0 0 1 .25-.6l.13-.23a5.3 5.3 0 0 0 .5-4.23 3.03 3.03 0 0 0-.32-.58c-.14-.22-.31-.4-.52-.53-.2-.13-.46-.24-.77-.33-.32-.1-.68-.14-1.08-.14a.8.8 0 0 0-.58.25c-.17.17-.32.39-.44.65-.12.25-.2.48-.25.67l-.17.8-.17.78c-.04.16-.12.37-.23.63-.11.26-.24.46-.4.62-.29.28-.72.8-1.31 1.56-.43.55-.86 1.07-1.31 1.57-.45.49-.78.75-.99.76-.21.02-.4.1-.56.27a.78.78 0 0 0-.23.56v8.32c0 .23.08.42.25.58.16.16.36.24.58.25.3.01.99.2 2.05.57l1.56.52c.38.11.9.24 1.58.37.68.14 1.3.2 1.87.2h1.67c1.15-.01 2-.35 2.56-1 .5-.6.71-1.39.64-2.36.33-.32.57-.72.7-1.22.14-.52.14-1.03 0-1.52.4-.52.58-1.12.56-1.77 0-.28-.07-.6-.2-.99"/><path id="llimd" d="M433.57 4267.35h-3.74a.8.8 0 0 0-.58.25.8.8 0 0 0-.25.58v8.3c0 .23.08.43.25.6a.8.8 0 0 0 .58.24h3.74a.8.8 0 0 0 .58-.25.8.8 0 0 0 .25-.58v-8.3a.8.8 0 0 0-.25-.6.8.8 0 0 0-.58-.24m-1.5 8.07a.8.8 0 0 1-.58.25.8.8 0 0 1-.59-.25.81.81 0 0 1-.24-.59c0-.23.08-.42.24-.59a.79.79 0 0 1 .6-.25.8.8 0 0 1 .58.25.8.8 0 0 1 .24.59.8.8 0 0 1-.24.6"/><clipPath id="llimb"><use xlink:href="#llima"/></clipPath></defs><g><g transform="translate(-429 -4259)"><g><g/><g clip-path="url(#llimb)"><use fill="#9b9b9b" xlink:href="#llimc"/></g></g><g><use fill="#9b9b9b" xlink:href="#llimd"/></g></g></g></svg>